<svg width="533" height="83" viewBox="0 0 533 83" fill="none" xmlns="http://www.w3.org/2000/svg">
<path fill-rule="evenodd" clip-rule="evenodd" d="M465.404 19.985C480.771 24.5486 488.629 20.6901 493.72 18.1904C494.97 17.5766 496.069 17.0367 497.069 16.6918L498.09 19.6811C497.191 19.991 496.211 20.4729 495.099 21.0188C489.573 23.7315 481.045 27.9194 464.518 23.0113L465.404 19.985V19.985Z" fill="#FF5B04"/>
<path fill-rule="evenodd" clip-rule="evenodd" d="M457.688 57.964C461.834 60.6758 466.714 61.3697 471.573 60.9271C478.306 60.3129 484.991 57.5342 489.741 54.8427C493.68 52.6119 497.817 52.1821 501.584 52.7188C506.703 53.4479 511.173 55.989 513.491 58.1858L511.337 60.483C509.377 58.6257 505.563 56.4718 501.153 55.8438C497.988 55.3924 494.532 55.7419 491.28 57.5845C486.228 60.4466 479.094 63.4042 471.856 64.064C466.353 64.5657 460.785 63.7514 455.977 60.6071L457.687 57.964H457.688V57.964Z" fill="#FF5B04"/>
<path fill-rule="evenodd" clip-rule="evenodd" d="M457.658 29.9676C472.4 31.9218 479.003 29.9215 484.7 28.196C491.067 26.2676 496.377 24.6588 509.431 28.546L508.545 31.5722C496.39 27.9534 491.483 29.4401 485.598 31.2223C479.611 33.0353 472.674 35.1371 457.252 33.0925L457.658 29.9676V29.9676Z" fill="#FF5B04"/>
<path fill-rule="evenodd" clip-rule="evenodd" d="M468.739 70.888C482.87 62.369 491.54 64.7663 499.687 67.0188C501.115 67.4149 502.527 67.8059 503.934 68.1213L503.257 71.1969C501.776 70.8649 500.325 70.4628 498.856 70.0571H498.85C491.332 67.9784 483.333 65.7664 470.352 73.5929L468.739 70.888V70.888Z" fill="#FF5B04"/>
<path fill-rule="evenodd" clip-rule="evenodd" d="M456.463 39.6699C471.361 45.0459 478.645 41.1224 485.17 37.6082C492.646 33.5809 499.224 30.0391 513.275 38.868L511.613 41.536C499.111 33.6805 493.283 36.8193 486.659 40.3869C479.554 44.2136 471.621 48.4863 455.405 42.6343L456.463 39.6699V39.6699Z" fill="#FF5B04"/>
<path fill-rule="evenodd" clip-rule="evenodd" d="M456.529 49.6169C461.502 52.3758 467.299 52.2692 473.217 50.8352C479.329 49.3532 485.616 46.4426 491.302 43.7502C497.536 40.7982 502.837 41.3142 507.083 43.0447C511.24 44.7388 514.298 47.5719 516.231 49.4044L514.077 51.7016C512.315 50.0319 509.533 47.4525 505.901 45.9718C502.358 44.5281 497.915 44.108 492.644 46.6036C486.825 49.3596 480.381 52.3407 473.956 53.8983C467.336 55.5025 460.785 55.5842 455.015 52.3836L456.529 49.6169V49.6169Z" fill="#FF5B04"/>
<path fill-rule="evenodd" clip-rule="evenodd" d="M519.626 16.4386C520.64 16.4386 521.558 16.0259 522.222 15.3601C522.886 14.6938 523.297 13.7725 523.297 12.7553C523.297 11.738 522.886 10.8167 522.222 10.1504C521.558 9.48413 520.64 9.0719 519.626 9.0719C518.613 9.0719 517.695 9.48413 517.031 10.1504C516.367 10.8167 515.956 11.738 515.956 12.7553C515.956 13.7725 516.367 14.6938 517.031 15.3601C517.695 16.0264 518.613 16.4386 519.626 16.4386ZM525.857 19.0079C524.263 20.608 522.059 21.598 519.626 21.598C517.193 21.598 514.989 20.608 513.395 19.0079C511.801 17.4083 510.814 15.1964 510.814 12.7553C510.814 10.3137 511.801 8.10172 513.395 6.50213C514.989 4.90253 517.193 3.91207 519.626 3.91207C522.059 3.91207 524.263 4.90253 525.857 6.50213C527.451 8.10172 528.438 10.3137 528.438 12.7553C528.438 15.1968 527.451 17.4083 525.857 19.0079Z" fill="#FF5B04"/>
<path fill-rule="evenodd" clip-rule="evenodd" d="M483.666 12.8447C492.659 12.8447 500.8 16.5036 506.693 22.4164C512.586 28.3302 516.231 36.5006 516.231 45.525C516.231 54.5499 512.586 62.7194 506.693 68.6336C500.8 74.5473 492.659 78.2053 483.666 78.2053C474.675 78.2053 466.532 74.5469 460.639 68.6336C454.747 62.7198 451.102 54.549 451.102 45.525C451.102 36.5006 454.747 28.3306 460.639 22.4169C466.533 16.5031 474.673 12.8447 483.666 12.8447V12.8447ZM502.684 26.4396C497.817 21.5555 491.093 18.5343 483.666 18.5343C476.239 18.5343 469.515 21.5555 464.648 26.4401C459.782 31.3233 456.771 38.0716 456.771 45.525C456.771 52.9784 459.781 59.7263 464.648 64.6104C469.515 69.4945 476.239 72.5157 483.666 72.5157C491.093 72.5157 497.818 69.494 502.684 64.6104C507.551 59.7263 510.562 52.9784 510.562 45.525C510.562 38.0721 507.551 31.3237 502.684 26.4396V26.4396Z" fill="#FF5B04"/>
<path fill-rule="evenodd" clip-rule="evenodd" d="M72.6539 67.515V32.886L44.9971 67.5242H36.9521L72.4558 23.0468L78.9529 23.05L78.9548 67.5131L72.6539 67.515ZM44.6861 23.0468L9.39918 67.515H1.36237L36.6162 23.045L44.6861 23.0468V23.0468Z" fill="white"/>
<path fill-rule="evenodd" clip-rule="evenodd" d="M144.286 23.045H189.079C192.854 23.045 196.284 24.5929 198.768 27.0857C201.252 29.5789 202.794 33.0216 202.794 36.8087C202.794 40.5967 201.252 44.0384 198.767 46.5321C197.01 48.2949 194.779 49.5856 192.289 50.1901L206.439 67.5154L198.279 67.5205L179.348 44.2501H189.079C191.114 44.2501 192.967 43.4113 194.312 42.0612C195.657 40.7115 196.493 38.8514 196.493 36.8091C196.493 34.7664 195.658 32.9058 194.313 31.5561C192.968 30.2065 191.114 29.3682 189.079 29.3682L149.694 29.3677L144.286 23.045V23.045Z" fill="white"/>
<path fill-rule="evenodd" clip-rule="evenodd" d="M273.404 29.3663H229.924C227.819 29.3663 225.924 30.1258 224.567 31.3477C223.298 32.4922 222.509 34.0438 222.509 35.7264C222.509 37.4026 223.296 38.9468 224.561 40.0881C225.93 41.3215 227.833 42.0902 229.936 42.0994C239.132 42.1405 253.012 42.1451 262.209 42.1451C265.912 42.1451 269.301 43.5289 271.774 45.7584C274.334 48.0658 275.924 51.2751 275.924 54.828C275.924 58.3817 274.335 61.5915 271.774 63.8999C269.302 66.1279 265.915 67.5117 262.209 67.5117H222.51L216.98 61.1885H262.209C264.314 61.1885 266.21 60.4291 267.566 59.2067C268.835 58.0622 269.624 56.5106 269.624 54.8284C269.624 53.1467 268.835 51.5956 267.565 50.4506C266.208 49.2282 264.313 48.4683 262.209 48.4683C253.01 48.4683 239.11 48.4383 229.911 48.3973C226.201 48.3812 222.814 46.9997 220.352 44.7808C217.796 42.4771 216.208 39.277 216.208 35.7269C216.208 32.1731 217.798 28.9628 220.358 26.6555C222.831 24.4269 226.219 23.0431 229.924 23.0431H268.093L273.404 29.3663V29.3663Z" fill="white"/>
<path fill-rule="evenodd" clip-rule="evenodd" d="M320.145 23.0431H351.803C357.899 23.0431 363.439 25.5432 367.453 29.5715C371.467 33.5998 373.959 39.1594 373.959 45.2765C373.959 51.3941 371.467 56.9537 367.453 60.9815C363.439 65.0093 357.899 67.5099 351.803 67.5099H315.143L320.144 61.1867H351.803C356.16 61.1867 360.124 59.3957 362.999 56.5105C365.873 53.6263 367.658 49.6488 367.658 45.2765C367.658 40.9042 365.873 36.9272 362.999 34.0424C360.124 31.1573 356.16 29.3663 351.803 29.3663H314.925L320.145 23.0431Z" fill="white"/>
<path fill-rule="evenodd" clip-rule="evenodd" d="M127.447 61.1904L132.246 67.5136H87.905L91.529 62.4008L122.351 23.0459L126.911 23.0473C137.82 36.9839 150.793 53.5834 161.707 67.5159L153.72 67.5177C143.631 54.6375 134.715 43.2379 124.631 30.3549L100.479 61.1904H127.447V61.1904Z" fill="white"/>
<path fill-rule="evenodd" clip-rule="evenodd" d="M407.852 61.1904L403.054 67.5136H447.395L443.771 62.4008L412.949 23.0459L408.388 23.0473C397.48 36.9839 384.507 53.5834 373.593 67.5159L381.58 67.5177C391.669 54.6375 400.584 43.2379 410.669 30.3549L434.821 61.1908L407.852 61.1904V61.1904Z" fill="white"/>
</svg>
